<svg width="55" height="19" viewBox="0 0 55 19" fill="none" xmlns="http://www.w3.org/2000/svg">
<path d="M8.4 18.225C7.03333 18.225 5.775 17.9583 4.625 17.425C3.475 16.875 2.55833 16.1417 1.875 15.225C1.20833 14.2917 0.875 13.2917 0.875 12.225V6.275C0.875 5.20833 1.20833 4.21667 1.875 3.3C2.55833 2.36667 3.475 1.63333 4.625 1.1C5.775 0.549999 7.03333 0.274999 8.4 0.274999C9.76667 0.274999 11.025 0.549999 12.175 1.1C13.325 1.63333 14.2333 2.36667 14.9 3.3C15.5833 4.21667 15.925 5.20833 15.925 6.275V12.225C15.925 13.2917 15.5833 14.2917 14.9 15.225C14.2333 16.1417 13.325 16.875 12.175 17.425C11.025 17.9583 9.76667 18.225 8.4 18.225ZM8.4 15.025C9.53333 15.025 10.4583 14.7583 11.175 14.225C11.8917 13.6917 12.25 13 12.25 12.15V6.35C12.25 5.5 11.8917 4.80833 11.175 4.275C10.4583 3.74167 9.53333 3.475 8.4 3.475C7.26667 3.475 6.34167 3.74167 5.625 4.275C4.90833 4.80833 4.55 5.5 4.55 6.35V12.15C4.55 13 4.90833 13.6917 5.625 14.225C6.34167 14.7583 7.26667 15.025 8.4 15.025ZM24.9469 8.225C23.9469 8.225 23.1385 8.48333 22.5219 9C21.9052 9.51667 21.5969 10.1667 21.5969 10.95V16.225C21.5969 16.9417 21.3135 17.4583 20.7469 17.775C20.1969 18.075 19.3385 18.225 18.1719 18.225V7.875C18.1719 7.04167 18.4469 6.4 18.9969 5.95C19.5469 5.5 20.3635 5.275 21.4469 5.275V6.75C21.1969 7.01667 20.9885 7.3 20.8219 7.6L20.9969 7.7C22.0469 6.08333 23.3552 5.275 24.9219 5.275C25.6719 5.275 26.2385 5.475 26.6219 5.875C27.0052 6.275 27.1969 6.78333 27.1969 7.4C27.1969 7.86667 27.0719 8.275 26.8219 8.625C26.3552 8.35833 25.7302 8.225 24.9469 8.225ZM29.207 2.525C29.207 1.825 29.4904 1.275 30.057 0.874998C30.6404 0.474999 31.5154 0.274999 32.682 0.274999V5.975C32.3987 6.175 32.2154 6.34167 32.132 6.475L32.232 6.6C32.6654 6.18333 33.2404 5.85833 33.957 5.625C34.6904 5.39167 35.3487 5.275 35.932 5.275C37.4154 5.275 38.5987 5.7 39.482 6.55C40.3654 7.38333 40.807 8.46667 40.807 9.8V13.675C40.807 14.5417 40.582 15.325 40.132 16.025C39.6987 16.7083 39.1154 17.25 38.382 17.65C37.6654 18.0333 36.8987 18.225 36.082 18.225C35.1654 18.225 34.382 18.05 33.732 17.7C33.0987 17.3333 32.5237 16.8 32.007 16.1L31.882 16.2C31.9654 16.35 32.1237 16.5667 32.357 16.85C32.357 17.2833 32.1154 17.625 31.632 17.875C31.1487 18.1083 30.3404 18.225 29.207 18.225V2.525ZM35.007 15.275C35.7737 15.275 36.357 15.1167 36.757 14.8C37.1737 14.4833 37.382 14.025 37.382 13.425V10.05C37.382 9.46667 37.1737 9.01667 36.757 8.7C36.357 8.38333 35.7737 8.225 35.007 8.225C34.307 8.225 33.732 8.39167 33.282 8.725C32.8487 9.05833 32.632 9.46667 32.632 9.95V13.55C32.632 14.05 32.8487 14.4667 33.282 14.8C33.732 15.1167 34.307 15.275 35.007 15.275ZM45.6654 4.325C45.0321 4.325 44.4988 4.14167 44.0654 3.775C43.6488 3.39167 43.4404 2.9 43.4404 2.3C43.4404 1.7 43.6488 1.21667 44.0654 0.849999C44.4988 0.466665 45.0321 0.274999 45.6654 0.274999C46.2988 0.274999 46.8238 0.466665 47.2404 0.849999C47.6738 1.21667 47.8904 1.7 47.8904 2.3C47.8904 2.9 47.6738 3.39167 47.2404 3.775C46.8238 4.14167 46.2988 4.325 45.6654 4.325ZM43.9404 7.275C43.9404 6.55833 44.2238 6.05 44.7904 5.75C45.3571 5.43333 46.2154 5.275 47.3654 5.275V16.225C47.3654 16.9417 47.0821 17.4583 46.5154 17.775C45.9488 18.075 45.0904 18.225 43.9404 18.225V7.275ZM52.1926 18.225C51.6259 18.225 51.1426 18.0417 50.7426 17.675C50.3426 17.2917 50.1426 16.8083 50.1426 16.225C50.1426 15.6417 50.3426 15.1583 50.7426 14.775C51.1426 14.3917 51.6259 14.2 52.1926 14.2C52.7592 14.2 53.2426 14.3917 53.6426 14.775C54.0592 15.1583 54.2676 15.6417 54.2676 16.225C54.2676 16.8083 54.0592 17.2917 53.6426 17.675C53.2426 18.0417 52.7592 18.225 52.1926 18.225Z" fill="white"/>
<path d="M4.625 17.425L4.58185 17.5152L4.58293 17.5157L4.625 17.425ZM1.875 15.225L1.79361 15.2831L1.79483 15.2848L1.875 15.225ZM1.875 3.3L1.79431 3.24093L1.79413 3.24118L1.875 3.3ZM4.625 1.1L4.66708 1.19072L4.66815 1.19021L4.625 1.1ZM12.175 1.1L12.1319 1.19022L12.1329 1.19072L12.175 1.1ZM14.9 3.3L14.8186 3.35814L14.8198 3.35977L14.9 3.3ZM14.9 15.225L14.8193 15.1659L14.8191 15.1662L14.9 15.225ZM12.175 17.425L12.2171 17.5157L12.2181 17.5152L12.175 17.425ZM11.175 14.225L11.2347 14.3052L11.2347 14.3052L11.175 14.225ZM11.175 4.275L11.2347 4.19478L11.2347 4.19478L11.175 4.275ZM8.4 18.125C7.04671 18.125 5.80288 17.861 4.66707 17.3343L4.58293 17.5157C5.74712 18.0556 7.01996 18.325 8.4 18.325V18.125ZM4.66815 17.3348C3.53107 16.791 2.62774 16.0675 1.95517 15.1652L1.79483 15.2848C2.48892 16.2159 3.41893 16.959 4.58185 17.5152L4.66815 17.3348ZM1.95637 15.1669C1.30086 14.2492 0.975 13.2692 0.975 12.225H0.775C0.775 13.3141 1.11581 14.3342 1.79363 15.2831L1.95637 15.1669ZM0.975 12.225V6.275H0.775V12.225H0.975ZM0.975 6.275C0.975 5.23083 1.30081 4.25953 1.95587 3.35882L1.79413 3.24118C1.11586 4.1738 0.775 5.18584 0.775 6.275H0.975ZM1.95569 3.35907C2.62809 2.44066 3.53091 1.71764 4.66707 1.19072L4.58293 1.00928C3.41909 1.54903 2.48857 2.29267 1.79431 3.24093L1.95569 3.35907ZM4.66815 1.19021C5.80372 0.647112 7.04717 0.374999 8.4 0.374999V0.174999C7.0195 0.174999 5.74628 0.452885 4.58185 1.00979L4.66815 1.19021ZM8.4 0.374999C9.75283 0.374999 10.9963 0.647112 12.1319 1.19021L12.2181 1.00979C11.0537 0.452885 9.7805 0.174999 8.4 0.174999V0.374999ZM12.1329 1.19072C13.2689 1.71755 14.1631 2.44032 14.8186 3.35812L14.9814 3.24188C14.3036 2.29302 13.3811 1.54911 12.2171 1.00928L12.1329 1.19072ZM14.8198 3.35977C15.4913 4.26048 15.825 5.23146 15.825 6.275H16.025C16.025 5.18521 15.6754 4.17285 14.9802 3.24023L14.8198 3.35977ZM15.825 6.275V12.225H16.025V6.275H15.825ZM15.825 12.225C15.825 13.2686 15.4912 14.2482 14.8193 15.1659L14.9807 15.2841C15.6754 14.3351 16.025 13.3147 16.025 12.225H15.825ZM14.8191 15.1662C14.1634 16.0678 13.2688 16.791 12.1319 17.3348L12.2181 17.5152C13.3812 16.959 14.3033 16.2155 14.9809 15.2838L14.8191 15.1662ZM12.1329 17.3343C10.9971 17.861 9.75329 18.125 8.4 18.125V18.325C9.78005 18.325 11.0529 18.0556 12.2171 17.5157L12.1329 17.3343ZM8.4 15.125C9.54901 15.125 10.4966 14.8545 11.2347 14.3052L11.1153 14.1448C10.42 14.6622 9.51766 14.925 8.4 14.925V15.125ZM11.2347 14.3052C11.9752 13.7541 12.35 13.0334 12.35 12.15H12.15C12.15 12.9666 11.8081 13.6292 11.1153 14.1448L11.2347 14.3052ZM12.35 12.15V6.35H12.15V12.15H12.35ZM12.35 6.35C12.35 5.46655 11.9752 4.74585 11.2347 4.19478L11.1153 4.35522C11.8081 4.87081 12.15 5.53345 12.15 6.35H12.35ZM11.2347 4.19478C10.4966 3.64551 9.54901 3.375 8.4 3.375V3.575C9.51766 3.575 10.42 3.83782 11.1153 4.35522L11.2347 4.19478ZM8.4 3.375C7.25099 3.375 6.30338 3.64551 5.5653 4.19478L5.6847 4.35522C6.37996 3.83782 7.28234 3.575 8.4 3.575V3.375ZM5.5653 4.19478C4.82479 4.74585 4.45 5.46655 4.45 6.35H4.65C4.65 5.53345 4.99188 4.87081 5.6847 4.35522L5.5653 4.19478ZM4.45 6.35V12.15H4.65V6.35H4.45ZM4.45 12.15C4.45 13.0334 4.82479 13.7541 5.5653 14.3052L5.6847 14.1448C4.99188 13.6292 4.65 12.9666 4.65 12.15H4.45ZM5.5653 14.3052C6.30338 14.8545 7.25099 15.125 8.4 15.125V14.925C7.28234 14.925 6.37996 14.6622 5.6847 14.1448L5.5653 14.3052ZM22.5219 9L22.5861 9.07665L22.5861 9.07665L22.5219 9ZM20.7469 17.775L20.7948 17.8628L20.7957 17.8623L20.7469 17.775ZM18.1719 18.225H18.0719V18.325H18.1719V18.225ZM18.9969 5.95L18.9336 5.8726L18.9336 5.8726L18.9969 5.95ZM21.4469 5.275H21.5469V5.175H21.4469V5.275ZM21.4469 6.75L21.5198 6.81839L21.5469 6.78954V6.75H21.4469ZM20.8219 7.6L20.7345 7.55144L20.6865 7.6378L20.7723 7.68682L20.8219 7.6ZM20.9969 7.7L20.9473 7.78682L21.0293 7.83369L21.0807 7.75447L20.9969 7.7ZM26.6219 5.875L26.5497 5.94419L26.6219 5.875ZM26.8219 8.625L26.7723 8.71182L26.8507 8.75666L26.9032 8.68312L26.8219 8.625ZM24.9469 8.125C23.9293 8.125 23.0964 8.38821 22.4577 8.92335L22.5861 9.07665C23.1807 8.57846 23.9645 8.325 24.9469 8.325V8.125ZM22.4577 8.92335C21.819 9.45842 21.4969 10.1362 21.4969 10.95H21.6969C21.6969 10.1972 21.9914 9.57491 22.5861 9.07665L22.4577 8.92335ZM21.4969 10.95V16.225H21.6969V10.95H21.4969ZM21.4969 16.225C21.4969 16.91 21.2293 17.3908 20.6981 17.6877L20.7957 17.8623C21.3978 17.5258 21.6969 16.9733 21.6969 16.225H21.4969ZM20.699 17.6872C20.1715 17.9749 19.3339 18.125 18.1719 18.125V18.325C19.3432 18.325 20.2222 18.1751 20.7948 17.8628L20.699 17.6872ZM18.2719 18.225V7.875H18.0719V18.225H18.2719ZM18.2719 7.875C18.2719 7.06589 18.5375 6.45503 19.0602 6.0274L18.9336 5.8726C18.3562 6.34497 18.0719 7.01745 18.0719 7.875H18.2719ZM19.0602 6.0274C19.5851 5.59796 20.3751 5.375 21.4469 5.375V5.175C20.352 5.175 19.5087 5.40204 18.9336 5.8726L19.0602 6.0274ZM21.3469 5.275V6.75H21.5469V5.275H21.3469ZM21.3739 6.68161C21.1187 6.95388 20.9054 7.24381 20.7345 7.55144L20.9093 7.64856C21.0717 7.35619 21.2751 7.07946 21.5198 6.81839L21.3739 6.68161ZM20.7723 7.68682L20.9473 7.78682L21.0465 7.61317L20.8715 7.51318L20.7723 7.68682ZM21.0807 7.75447C22.1172 6.1587 23.3971 5.375 24.9219 5.375V5.175C23.3133 5.175 21.9766 6.00796 20.913 7.64553L21.0807 7.75447ZM24.9219 5.375C25.6546 5.375 26.1911 5.57007 26.5497 5.94419L26.6941 5.80581C26.2859 5.37993 25.6892 5.175 24.9219 5.175V5.375ZM26.5497 5.94419C26.9131 6.3234 27.0969 6.80595 27.0969 7.4H27.2969C27.2969 6.76072 27.0973 6.2266 26.6941 5.80581L26.5497 5.94419ZM27.0969 7.4C27.0969 7.84769 26.9773 8.23529 26.7405 8.56688L26.9032 8.68312C27.1664 8.31471 27.2969 7.88564 27.2969 7.4H27.0969ZM26.8715 8.53817C26.3843 8.25981 25.7402 8.125 24.9469 8.125V8.325C25.7203 8.325 26.3261 8.45686 26.7723 8.71182L26.8715 8.53817ZM30.057 0.874998L30.0005 0.792518L29.9994 0.793302L30.057 0.874998ZM32.682 0.274999H32.782V0.174999H32.682V0.274999ZM32.682 5.975L32.7397 6.0567L32.782 6.02681V5.975H32.682ZM32.132 6.475L32.0472 6.422L32.0097 6.48211L32.0539 6.53747L32.132 6.475ZM32.232 6.6L32.1539 6.66247L32.2224 6.74801L32.3013 6.67208L32.232 6.6ZM33.957 5.625L33.9267 5.5297L33.9261 5.52991L33.957 5.625ZM39.482 6.55L39.4127 6.62206L39.4134 6.62274L39.482 6.55ZM40.132 16.025L40.0479 15.9709L40.0476 15.9714L40.132 16.025ZM38.382 17.65L38.4292 17.7382L38.4299 17.7378L38.382 17.65ZM33.732 17.7L33.6819 17.7866L33.6846 17.788L33.732 17.7ZM32.007 16.1L32.0875 16.0406L32.0257 15.957L31.9446 16.0219L32.007 16.1ZM31.882 16.2L31.8196 16.1219L31.7536 16.1747L31.7946 16.2486L31.882 16.2ZM32.357 16.85H32.457V16.8141L32.4342 16.7864L32.357 16.85ZM31.632 17.875L31.6755 17.9651L31.678 17.9638L31.632 17.875ZM29.207 18.225H29.107V18.325H29.207V18.225ZM36.757 14.8L36.6965 14.7204L36.695 14.7216L36.757 14.8ZM36.757 8.7L36.6949 8.77842L36.6965 8.77962L36.757 8.7ZM33.282 8.725L33.2225 8.64463L33.2211 8.64574L33.282 8.725ZM33.282 14.8L33.221 14.8793L33.2245 14.8818L33.282 14.8ZM29.307 2.525C29.307 1.85714 29.5749 1.33775 30.1147 0.956695L29.9994 0.793302C29.4059 1.21225 29.107 1.79286 29.107 2.525H29.307ZM30.1136 0.957471C30.6726 0.574137 31.5237 0.374999 32.682 0.374999V0.174999C31.507 0.174999 30.6081 0.375861 30.0005 0.792526L30.1136 0.957471ZM32.582 0.274999V5.975H32.782V0.274999H32.582ZM32.6244 5.8933C32.3401 6.09393 32.142 6.27032 32.0472 6.422L32.2168 6.528C32.2887 6.41302 32.4573 6.25607 32.7397 6.0567L32.6244 5.8933ZM32.0539 6.53747L32.1539 6.66247L32.3101 6.53753L32.2101 6.41253L32.0539 6.53747ZM32.3013 6.67208C32.7214 6.26819 33.2821 5.9499 33.988 5.72009L33.9261 5.52991C33.1986 5.76676 32.6093 6.09847 32.1627 6.52792L32.3013 6.67208ZM33.9874 5.72029C34.7138 5.48914 35.3617 5.375 35.932 5.375V5.175C35.3357 5.175 34.6669 5.29419 33.9267 5.52971L33.9874 5.72029ZM35.932 5.375C37.3953 5.375 38.5518 5.79362 39.4127 6.62206L39.5514 6.47794C38.6456 5.60638 37.4355 5.175 35.932 5.175V5.375ZM39.4134 6.62274C40.2746 7.43522 40.707 8.49121 40.707 9.8H40.907C40.907 8.44213 40.4561 7.33145 39.5507 6.47726L39.4134 6.62274ZM40.707 9.8V13.675H40.907V9.8H40.707ZM40.707 13.675C40.707 14.5233 40.4871 15.2877 40.0479 15.9709L40.2161 16.0791C40.677 15.3623 40.907 14.56 40.907 13.675H40.707ZM40.0476 15.9714C39.6236 16.64 39.0531 17.1701 38.3341 17.5622L38.4299 17.7378C39.1776 17.3299 39.7738 16.7767 40.2165 16.0786L40.0476 15.9714ZM38.3349 17.5618C37.6328 17.9374 36.8823 18.125 36.082 18.125V18.325C36.9151 18.325 37.6979 18.1293 38.4292 17.7382L38.3349 17.5618ZM36.082 18.125C35.178 18.125 34.4118 17.9524 33.7794 17.612L33.6846 17.788C34.3523 18.1476 35.1528 18.325 36.082 18.325V18.125ZM33.7821 17.6135C33.1627 17.2548 32.5975 16.7316 32.0875 16.0406L31.9266 16.1594C32.4499 16.8684 33.0347 17.4118 33.6819 17.7865L33.7821 17.6135ZM31.9446 16.0219L31.8196 16.1219L31.9445 16.2781L32.0695 16.1781L31.9446 16.0219ZM31.7946 16.2486C31.8827 16.407 32.046 16.6296 32.2798 16.9136L32.4342 16.7864C32.2014 16.5037 32.0481 16.293 31.9694 16.1514L31.7946 16.2486ZM32.257 16.85C32.257 17.2358 32.0463 17.5481 31.5861 17.7862L31.678 17.9638C32.1844 17.7019 32.457 17.3309 32.457 16.85H32.257ZM31.5886 17.7849C31.127 18.0078 30.3384 18.125 29.207 18.125V18.325C30.3423 18.325 31.1704 18.2089 31.6755 17.9651L31.5886 17.7849ZM29.307 18.225V2.525H29.107V18.225H29.307ZM35.007 15.375C35.7854 15.375 36.3945 15.2146 36.8191 14.8784L36.695 14.7216C36.3196 15.0188 35.762 15.175 35.007 15.175V15.375ZM36.8175 14.8796C37.263 14.5411 37.482 14.051 37.482 13.425H37.282C37.282 13.999 37.0844 14.4256 36.6965 14.7204L36.8175 14.8796ZM37.482 13.425V10.05H37.282V13.425H37.482ZM37.482 10.05C37.482 9.43952 37.2622 8.95831 36.8175 8.62038L36.6965 8.77962C37.0852 9.07502 37.282 9.49381 37.282 10.05H37.482ZM36.8191 8.6216C36.3945 8.28545 35.7854 8.125 35.007 8.125V8.325C35.762 8.325 36.3196 8.48122 36.695 8.7784L36.8191 8.6216ZM35.007 8.125C34.291 8.125 33.6936 8.29566 33.2225 8.64464L33.3416 8.80536C33.7704 8.48767 34.323 8.325 35.007 8.325V8.125ZM33.2211 8.64574C32.7668 8.99517 32.532 9.43126 32.532 9.95H32.732C32.732 9.50208 32.9306 9.12149 33.343 8.80426L33.2211 8.64574ZM32.532 9.95V13.55H32.732V9.95H32.532ZM32.532 13.55C32.532 14.0842 32.7658 14.529 33.2211 14.8793L33.343 14.7207C32.9316 14.4043 32.732 14.0158 32.732 13.55H32.532ZM33.2245 14.8818C33.6954 15.2132 34.292 15.375 35.007 15.375V15.175C34.322 15.175 33.7687 15.0202 33.3396 14.7182L33.2245 14.8818ZM44.0654 3.775L43.9977 3.84866L44.0008 3.85134L44.0654 3.775ZM44.0654 0.849999L44.1315 0.92507L44.1317 0.924898L44.0654 0.849999ZM47.2404 0.849999L47.1727 0.923655L47.1758 0.926337L47.2404 0.849999ZM47.2404 3.775L47.3065 3.85007L47.3067 3.8499L47.2404 3.775ZM44.7904 5.75L44.8372 5.8384L44.8392 5.83729L44.7904 5.75ZM47.3654 5.275H47.4654V5.175H47.3654V5.275ZM46.5154 17.775L46.5622 17.8634L46.5642 17.8623L46.5154 17.775ZM43.9404 18.225H43.8404V18.325H43.9404V18.225ZM45.6654 4.225C45.0528 4.225 44.5432 4.04826 44.13 3.69866L44.0008 3.85134C44.4543 4.23507 45.0114 4.425 45.6654 4.425V4.225ZM44.1331 3.70141C43.7384 3.33825 43.5404 2.87391 43.5404 2.3H43.3404C43.3404 2.92609 43.5591 3.44509 43.9977 3.84859L44.1331 3.70141ZM43.5404 2.3C43.5404 1.72611 43.7383 1.27108 44.1315 0.92507L43.9994 0.774927C43.5592 1.16225 43.3404 1.67389 43.3404 2.3H43.5404ZM44.1317 0.924898C44.545 0.559319 45.054 0.374999 45.6654 0.374999V0.174999C45.0102 0.174999 44.4526 0.374012 43.9992 0.775099L44.1317 0.924898ZM45.6654 0.374999C46.2769 0.374999 46.7768 0.559296 47.1727 0.923592L47.3081 0.776406C46.8708 0.374034 46.3206 0.174999 45.6654 0.174999V0.374999ZM47.1758 0.926337C47.5853 1.2728 47.7904 1.7275 47.7904 2.3H47.9904C47.9904 1.6725 47.7622 1.16053 47.305 0.77366L47.1758 0.926337ZM47.7904 2.3C47.7904 2.87256 47.5852 3.33653 47.1742 3.7001L47.3067 3.8499C47.7624 3.4468 47.9904 2.92744 47.9904 2.3H47.7904ZM47.1744 3.69993C46.7785 4.04827 46.2781 4.225 45.6654 4.225V4.425C46.3194 4.425 46.869 4.23507 47.3065 3.85007L47.1744 3.69993ZM44.0404 7.275C44.0404 6.9298 44.1086 6.64114 44.2403 6.40494C44.3716 6.16934 44.5692 5.9803 44.8372 5.83838L44.7436 5.66162C44.445 5.8197 44.2176 6.03483 44.0656 6.30756C43.9139 6.57969 43.8404 6.90353 43.8404 7.275H44.0404ZM44.8392 5.83729C45.3835 5.53314 46.2212 5.375 47.3654 5.375V5.175C46.2097 5.175 45.3307 5.33352 44.7416 5.66271L44.8392 5.83729ZM47.2654 5.275V16.225H47.4654V5.275H47.2654ZM47.2654 16.225C47.2654 16.91 46.9979 17.3908 46.4666 17.6877L46.5642 17.8623C47.1663 17.5258 47.4654 16.9733 47.4654 16.225H47.2654ZM46.4686 17.6866C45.9237 17.9751 45.0852 18.125 43.9404 18.125V18.325C45.0957 18.325 45.9738 18.1749 46.5622 17.8634L46.4686 17.6866ZM44.0404 18.225V7.275H43.8404V18.225H44.0404ZM50.7426 17.675L50.6734 17.7472L50.675 17.7487L50.7426 17.675ZM50.7426 14.775L50.8118 14.8472L50.8118 14.8472L50.7426 14.775ZM53.6426 14.775L53.5734 14.8472L53.5749 14.8486L53.6426 14.775ZM53.6426 17.675L53.7102 17.7487L53.7103 17.7486L53.6426 17.675ZM52.1926 18.125C51.6497 18.125 51.1908 17.9502 50.8102 17.6013L50.675 17.7487C51.0943 18.1331 51.6021 18.325 52.1926 18.325V18.125ZM50.8118 17.6028C50.4326 17.2394 50.2426 16.7827 50.2426 16.225H50.0426C50.0426 16.834 50.2526 17.3439 50.6734 17.7472L50.8118 17.6028ZM50.2426 16.225C50.2426 15.6673 50.4326 15.2106 50.8118 14.8472L50.6734 14.7028C50.2526 15.1061 50.0426 15.616 50.0426 16.225H50.2426ZM50.8118 14.8472C51.1927 14.4822 51.651 14.3 52.1926 14.3V14.1C51.6008 14.1 51.0925 14.3012 50.6734 14.7028L50.8118 14.8472ZM52.1926 14.3C52.7341 14.3 53.1925 14.4822 53.5734 14.8472L53.7118 14.7028C53.2927 14.3012 52.7844 14.1 52.1926 14.1V14.3ZM53.5749 14.8486C53.9703 15.2123 54.1676 15.6687 54.1676 16.225H54.3676C54.3676 15.6147 54.1482 15.1043 53.7103 14.7014L53.5749 14.8486ZM54.1676 16.225C54.1676 16.7813 53.9703 17.2377 53.5749 17.6014L53.7103 17.7486C54.1482 17.3457 54.3676 16.8353 54.3676 16.225H54.1676ZM53.575 17.6013C53.1943 17.9502 52.7354 18.125 52.1926 18.125V18.325C52.783 18.325 53.2908 18.1331 53.7102 17.7487L53.575 17.6013Z" fill="black"/>
</svg>
